<?xml version="1.0" encoding="UTF-8"?>
<svg id="Livello_1" data-name="Livello 1" xmlns="http://www.w3.org/2000/svg" width="210.15mm" height="296.97mm" viewBox="0 0 595.7 841.8">
  <defs>
    <style>
      .cls-1 {
        fill: #fff;
      }
    </style>
  </defs>
  <g id="welcome">
    <path class="cls-1" d="M71.8,146.3c-.9-8.9-1.5-11.3-7.6-11.7l.6-1.9h32.9l-.6,1.9c-6.9.7-8.2,1.5-7.6,7.1l3.6,38.8,18.5-25-.7-9.2c-.7-9-1.5-11.3-7.6-11.7l.6-1.9h32.9l-.6,1.9c-6.9.7-8,1.4-7.6,7.1l2.2,38.8,24.7-33.5c6.8-9.2,5.1-11.4-1.8-12.4l.6-1.9h25.6l-.6,1.9c-4.5.4-9.5,1.5-17.3,11.9l-45.1,60h-.9l-3.5-44.1-33.1,44.1h-.9l-6.2-60.3h-.5v.1h0Z"/>
    <path class="cls-1" d="M155,183.2c5.6-19.1,22.4-31,36.7-31s12.6,4,10.8,10.3c-1.6,5.8-6.7,8.5-18.1,13.4l-13.4,5.6c-.7,6.6.6,12.5,7.1,12.5s12.6-3.9,17.7-9.5l1.7,1.5c-6.3,8.2-17.9,19.4-29.9,19.4s-16.4-9.1-12.5-22.3h-.1v.1ZM171.6,177.1l6.4-3.1c7-3.5,11.9-7.2,12.8-13.1.4-2.4-.6-4.4-3.5-4.4-6.4,0-12.9,8.3-15.7,20.7h0v-.1h0Z"/>
    <path class="cls-1" d="M204.9,193.4l15.8-48.4c1.7-5.4,2.3-8.1-1.4-8.1s-1.4,0-2.4.3v-1.8c-.1,0,25.9-7.3,25.9-7.3l-21.1,64.7c-1.1,3.5-1.2,4.6.1,4.6s5.8-2.2,10.2-7.2l1.6,1.8c-9.3,10.9-16.6,13.4-23.5,13.4s-7.6-4.6-5.2-12.1h0v.1h0Z"/>
    <path class="cls-1" d="M239.9,183.2c5.6-19.1,22.6-30.9,35.7-30.9s14.7,5.8,10.7,17.3h-14.6c3.6-9.1,4.9-13.2.5-13.2-6.6,0-13.2,9.4-15.7,22.5-1.4,7.6-1.1,15.1,6.4,15.1s12.6-3.9,17.7-9.5l1.7,1.5c-6.3,8.2-17.9,19.4-29.9,19.4s-16.4-9.1-12.5-22.3h0v.1h0Z"/>
    <path class="cls-1" d="M292.9,176.4c5.4-14.9,17.2-24.1,32.8-24.1s23.6,13.6,18.2,29.1c-5.3,15-17.2,24.1-32.9,24.1s-23.4-13.5-18-29.1h-.1ZM327.5,177.3c4.1-15.6,2.9-21.1-2-21.1s-12.1,9-16.2,24.2c-4.1,15.6-2.9,21.1,2,21.1s12.1-9,16.2-24.2Z"/>
    <path class="cls-1" d="M361.4,167.8c1.8-5.4,2.3-8.1-1.4-8.1s-1.5,0-2.4.3v-1.8c-.1,0,25.9-7.3,25.9-7.3l-6.2,19c7.7-12.1,14.4-17.6,22.4-17.6s8.4,6.9,5.3,16.6l-1.2,3.8.9-2.8c7.7-12.1,14.1-17.6,22-17.6s8.4,6.9,5.3,16.6l-7.8,23.9c-1.1,3.5-1.2,4.6.1,4.6s5.8-2.2,10.2-7.2l1.6,1.8c-9.3,10.9-16.6,13.4-23.5,13.4s-7.6-4.6-5.2-12.1l8.3-25.4c1.2-3.8,1.8-5.6.3-5.6-3.1,0-12.2,11.8-19,30.5l-3.7,11.4h-16.5l11.9-36.3c1.3-3.8,1.8-5.6.3-5.6-3.3,0-13.9,13.4-20.7,34.5l-2.4,7.4h-16.5l12-36.5h0v.1h0Z"/>
    <path class="cls-1" d="M441.7,183.2c5.6-19.1,22.4-31,36.7-31s12.6,4,10.8,10.3c-1.6,5.8-6.7,8.5-18.1,13.4l-13.4,5.6c-.7,6.6.6,12.5,7.1,12.5s12.6-3.9,17.7-9.5l1.7,1.5c-6.3,8.2-17.9,19.4-29.9,19.4s-16.4-9.1-12.5-22.3h-.1v.1h0ZM458.3,177.1l6.4-3.1c7-3.5,11.9-7.2,12.8-13.1.4-2.4-.6-4.4-3.5-4.4-6.4,0-12.9,8.3-15.7,20.7h0v-.1h0Z"/>
  </g>
  <g id="to">
    <path class="cls-1" d="M53,282.5l11.6-34.9h-6.9l.7-2.1c11.2-4.2,21.4-12.7,27.7-20.2h2.1l-5.8,18h14.8l-1.4,4.2h-14.8l-11.2,34.4c-1.1,3.5-1.2,4.6,0,4.6s5.8-2.2,10.2-7.2l1.6,1.8c-9.3,10.9-16.6,13.4-23.5,13.4s-7.6-4.6-5.2-12.1h.1v.1h0Z"/>
    <path class="cls-1" d="M94.1,265.5c5.4-14.9,17.2-24.1,32.8-24.1s23.6,13.6,18.2,29.1c-5.3,15-17.2,24.1-32.9,24.1s-23.4-13.5-18-29.1c0,0-.1,0-.1,0ZM128.7,266.4c4.1-15.6,2.9-21.1-2-21.1s-12.1,9-16.2,24.2c-4.1,15.6-2.9,21.1,2,21.1s12.1-9,16.2-24.2Z"/>
  </g>
  <g id="the">
    <path class="cls-1" d="M178.7,282.5l11.6-34.9h-6.9l.7-2.1c11.2-4.2,21.4-12.7,27.7-20.2h2.1l-5.8,18h14.8l-1.4,4.2h-14.8l-11.2,34.4c-1.1,3.5-1.2,4.6.1,4.6s5.8-2.2,10.2-7.2l1.6,1.8c-9.3,10.9-16.6,13.4-23.5,13.4s-7.6-4.6-5.2-12.1h0v.1h0Z"/>
    <path class="cls-1" d="M234.9,234.1c1.7-5.4,2.3-8.1-1.4-8.1s-1.4,0-2.4.3v-1.8c-.1,0,25.9-7.3,25.9-7.3l-14.1,43.2c7.8-12.1,16.3-19,24.2-19s8.4,6.9,5.3,16.6l-7.8,23.9c-1.1,3.5-1.2,4.6.1,4.6s5.8-2.2,10.2-7.2l1.6,1.8c-9.3,10.9-16.6,13.4-23.5,13.4s-7.6-4.6-5.2-12.1l8.3-25.4c1.2-3.8,1.8-5.6.3-5.6-3.8,0-15.3,13.4-22.1,34.5l-2.4,7.4h-16.5l19.4-59.2h.1,0Z"/>
    <path class="cls-1" d="M282.3,272.3c5.6-19.1,22.4-31,36.7-31s12.6,4,10.8,10.3c-1.6,5.8-6.7,8.5-18.1,13.4l-13.4,5.6c-.7,6.6.6,12.5,7.1,12.5s12.6-3.9,17.7-9.5l1.7,1.5c-6.3,8.2-17.9,19.4-29.9,19.4s-16.4-9.1-12.5-22.3h-.1v.1h0ZM299,266.2l6.4-3.1c7-3.5,11.9-7.2,12.8-13.1.4-2.4-.6-4.4-3.5-4.4-6.4,0-12.9,8.3-15.7,20.7h0v-.1h0Z"/>
  </g>
  <g id="riot">
    <path class="cls-1" d="M44.7,414.4c7.1-.4,10.9-1.6,13.8-10.5l21.4-65.8c2.9-8.9,0-10.1-6.9-10.5l.9-2.7h40.8c28.9,0,36.2,13.5,31.6,27.8-3.6,11.3-15.2,17.4-30.9,19.8l21.4,32.5c4.6,7.1,6.9,8.6,12.1,9.2l-.8,2.7h-29.9l-26.7-43.4h-.4l-9.8,30.2c-2.9,8.9,0,10.1,9.3,10.5l-.8,2.7h-45.7l.8-2.7h0s-.2.2-.2.2ZM98.8,367.4c12,0,19.9-3.4,23.6-14.7,4.3-13.3.9-21.6-11.8-21.6h-5.9l-11.8,36.3h5.9Z"/>
    <path class="cls-1" d="M152,414.4c7.1-.4,10.9-1.6,13.8-10.5l21.4-65.8c2.9-8.9-.1-10.1-6.9-10.5l.9-2.7h43.3l-.9,2.7c-7.1.4-10.8,1.6-13.7,10.5l-21.4,65.8c-2.9,8.9.1,10.1,6.9,10.5l-.8,2.7h-43.3l.8-2.7h-.1Z"/>
    <path class="cls-1" d="M222.7,362.7c8.1-24.5,31.8-39.6,57.2-39.6,36.9,0,49,27.2,39.4,55.9-8.1,24.5-31.7,39.6-57.1,39.6-36.9,0-49-27.2-39.5-55.9h0ZM298.4,364.8c5.6-23.5-.8-35.9-14.9-35.9-20.8,0-33.8,22.1-39.9,48-5.6,23.5.8,35.9,14.7,35.9,21,0,33.9-22.1,40-48h.1,0Z"/>
    <path class="cls-1" d="M338.8,414.4c7.1-.4,10.9-1.6,13.8-10.5l23.6-72.7h-4.3c-21.1,0-25.1,4.2-33.9,20.3l-2.3-.2,9.8-26.4h88.2l-7.4,26.4-2.4.2c1.6-16.1.4-20.3-20.7-20.3h-4.3l-23.6,72.7c-2.9,8.9.1,10.1,6.9,10.5l-.8,2.7h-43.3l.8-2.7h-.1Z"/>
  </g>
</svg>